<svg width="52" height="52" viewBox="0 0 52 52" fill="none" xmlns="http://www.w3.org/2000/svg">
<mask id="mask0_925_667" style="mask-type:alpha" maskUnits="userSpaceOnUse" x="0" y="0" width="52" height="52">
<rect width="52" height="52" fill="#D9D9D9"/>
</mask>
<g mask="url(#mask0_925_667)">
<path d="M13.3333 47.6667C12.1417 47.6667 11.1219 47.2427 10.274 46.3949C9.42467 45.5455 9 44.525 9 43.3334V21.6667C9 20.475 9.42467 19.4545 10.274 18.6052C11.1219 17.7573 12.1417 17.3334 13.3333 17.3334H15.5V13C15.5 10.0028 16.5566 7.44758 18.6698 5.33435C20.7816 3.22258 23.3361 2.16669 26.3333 2.16669C29.3306 2.16669 31.8858 3.22258 33.999 5.33435C36.1108 7.44758 37.1667 10.0028 37.1667 13V17.3334H39.3333C40.525 17.3334 41.5455 17.7573 42.3948 18.6052C43.2427 19.4545 43.6667 20.475 43.6667 21.6667V43.3334C43.6667 44.525 43.2427 45.5455 42.3948 46.3949C41.5455 47.2427 40.525 47.6667 39.3333 47.6667H13.3333ZM13.3333 43.3334H39.3333V21.6667H13.3333V43.3334ZM26.3333 36.8334C27.525 36.8334 28.5455 36.4094 29.3948 35.5615C30.2427 34.7122 30.6667 33.6917 30.6667 32.5C30.6667 31.3084 30.2427 30.2879 29.3948 29.4385C28.5455 28.5906 27.525 28.1667 26.3333 28.1667C25.1417 28.1667 24.1219 28.5906 23.274 29.4385C22.4247 30.2879 22 31.3084 22 32.5C22 33.6917 22.4247 34.7122 23.274 35.5615C24.1219 36.4094 25.1417 36.8334 26.3333 36.8334ZM19.8333 17.3334H32.8333V13C32.8333 11.1945 32.2014 9.65974 30.9375 8.39585C29.6736 7.13197 28.1389 6.50002 26.3333 6.50002C24.5278 6.50002 22.9931 7.13197 21.7292 8.39585C20.4653 9.65974 19.8333 11.1945 19.8333 13V17.3334Z" fill="#C58ADE"/>
</g>
</svg>
