<svg width="52" height="52" viewBox="0 0 52 52" fill="none" xmlns="http://www.w3.org/2000/svg">
<mask id="mask0_925_673" style="mask-type:alpha" maskUnits="userSpaceOnUse" x="0" y="0" width="52" height="52">
<rect width="52" height="52" fill="#D9D9D9"/>
</mask>
<g mask="url(#mask0_925_673)">
<path d="M26.0003 34.6667C28.7087 34.6667 31.0111 33.7191 32.9077 31.824C34.8028 29.9275 35.7503 27.625 35.7503 24.9167C35.7503 22.2084 34.8028 19.9059 32.9077 18.0094C31.0111 16.1142 28.7087 15.1667 26.0003 15.1667C23.292 15.1667 20.9895 16.1142 19.093 18.0094C17.1979 19.9059 16.2503 22.2084 16.2503 24.9167C16.2503 27.625 17.1979 29.9275 19.093 31.824C20.9895 33.7191 23.292 34.6667 26.0003 34.6667ZM26.0003 30.7667C24.3753 30.7667 22.9944 30.1976 21.8577 29.0594C20.7194 27.9226 20.1503 26.5417 20.1503 24.9167C20.1503 23.2917 20.7194 21.9101 21.8577 20.7719C22.9944 19.6351 24.3753 19.0667 26.0003 19.0667C27.6253 19.0667 29.0069 19.6351 30.1452 20.7719C31.2819 21.9101 31.8503 23.2917 31.8503 24.9167C31.8503 26.5417 31.2819 27.9226 30.1452 29.0594C29.0069 30.1976 27.6253 30.7667 26.0003 30.7667ZM26.0003 41.1667C20.7281 41.1667 15.9253 39.6948 11.592 36.751C7.25866 33.8087 4.11699 29.8639 2.16699 24.9167C4.11699 19.9695 7.25866 16.024 11.592 13.0802C15.9253 10.1379 20.7281 8.66669 26.0003 8.66669C31.2725 8.66669 36.0753 10.1379 40.4087 13.0802C44.742 16.024 47.8837 19.9695 49.8337 24.9167C47.8837 29.8639 44.742 33.8087 40.4087 36.751C36.0753 39.6948 31.2725 41.1667 26.0003 41.1667ZM26.0003 36.8334C30.0809 36.8334 33.8278 35.7587 37.241 33.6094C40.6528 31.4615 43.2614 28.5639 45.067 24.9167C43.2614 21.2695 40.6528 18.3712 37.241 16.2219C33.8278 14.074 30.0809 13 26.0003 13C21.9198 13 18.1729 14.074 14.7597 16.2219C11.3479 18.3712 8.73921 21.2695 6.93366 24.9167C8.73921 28.5639 11.3479 31.4615 14.7597 33.6094C18.1729 35.7587 21.9198 36.8334 26.0003 36.8334Z" fill="#C58ADE"/>
</g>
</svg>
