<svg width="52" height="52" viewBox="0 0 52 52" fill="none" xmlns="http://www.w3.org/2000/svg">
<mask id="mask0_925_670" style="mask-type:alpha" maskUnits="userSpaceOnUse" x="0" y="0" width="52" height="52">
<rect width="52" height="52" fill="#D9D9D9"/>
</mask>
<g mask="url(#mask0_925_670)">
<path d="M34.667 28.1666C33.0059 26.65 31.3903 25.1608 29.8202 23.699C28.2486 22.2358 26.8583 20.8 25.6493 19.3916C24.4389 17.9833 23.4725 16.6198 22.7503 15.301C22.0281 13.9836 21.667 12.7111 21.667 11.4833C21.667 9.46109 22.3531 7.76387 23.7253 6.39165C25.0975 5.01942 26.7948 4.33331 28.817 4.33331C29.9725 4.33331 31.0559 4.5767 32.067 5.06348C33.0781 5.5517 33.9448 6.21109 34.667 7.04165C35.3892 6.21109 36.2559 5.5517 37.267 5.06348C38.2781 4.5767 39.3614 4.33331 40.517 4.33331C42.5392 4.33331 44.2364 5.01942 45.6087 6.39165C46.9809 7.76387 47.667 9.46109 47.667 11.4833C47.667 12.7111 47.3059 13.9836 46.5837 15.301C45.8614 16.6198 44.8958 17.9833 43.6868 19.3916C42.4764 20.8 41.0948 22.2358 39.542 23.699C37.9892 25.1608 36.3642 26.65 34.667 28.1666ZM34.667 22.3166C36.7976 20.2944 38.775 18.2809 40.5993 16.276C42.4222 14.2725 43.3337 12.675 43.3337 11.4833C43.3337 10.6528 43.0722 9.97531 42.5493 9.45098C42.025 8.92809 41.3475 8.66665 40.517 8.66665C40.0114 8.66665 39.5333 8.76559 39.0827 8.96348C38.6306 9.16281 38.242 9.46109 37.917 9.85831L34.667 13.7583L31.417 9.85831C31.092 9.46109 30.7042 9.16281 30.2535 8.96348C29.8014 8.76559 29.3225 8.66665 28.817 8.66665C27.9864 8.66665 27.3097 8.92809 26.7868 9.45098C26.2625 9.97531 26.0003 10.6528 26.0003 11.4833C26.0003 12.675 26.9118 14.2725 28.7347 16.276C30.559 18.2809 32.5364 20.2944 34.667 22.3166ZM30.3337 48.75L15.167 44.525V47.6666H2.16699V23.8333H19.392L32.8253 28.8166C34.017 29.25 34.9833 30.0083 35.7243 31.0916C36.4639 32.175 36.8337 33.3666 36.8337 34.6666H41.167C42.9725 34.6666 44.5073 35.2625 45.7712 36.4541C47.035 37.6458 47.667 39.2166 47.667 41.1666V43.3333L30.3337 48.75ZM6.50033 43.3333H10.8337V28.1666H6.50033V43.3333ZM30.2253 44.2L43.117 40.1916C43.0087 39.7944 42.7645 39.4961 42.3847 39.2968C42.0062 39.0989 41.6003 39 41.167 39H30.767C29.6475 39 28.6364 38.9278 27.7337 38.7833C26.8309 38.6389 25.8559 38.3861 24.8087 38.025L21.0712 36.725L22.317 32.6083L26.6503 34.0166C27.3003 34.2333 28.0587 34.3958 28.9253 34.5041C29.792 34.6125 30.9837 34.6666 32.5003 34.6666C32.5003 34.2694 32.3833 33.8903 32.1493 33.5291C31.9139 33.168 31.6337 32.9333 31.3087 32.825L18.6337 28.1666H15.167V40.0833L30.2253 44.2Z" fill="#C58ADE"/>
</g>
</svg>
